  <svg 
    width="400" height="200"
    viewBox="0 0 400 200"
    xmlns="http://www.w3.org/2000/svg"
  >

    <rect width="100%" height="100%" fill="red" />

    <g>
      <rect class="leg-l" x="50" y="150" width="25" height="50" fill="orange"  />
      <rect class="leg-r" x="125" y="150" width="25" height="50" fill="orange" />

      <rect class="arm-r" x="125" y="75" width="25" height="75" fill="magenta" transform="rotate(-25, 150, 75)" />
      <rect class="body" x="50" y="75" width="100" height="100" fill="blue" />
      <rect class="arm-l" x="50" y="75" width="25" height="75" fill="magenta" transform="rotate(25, 50, 75)" />

      <circle class="head" cx="100" cy="50" r="50" fill="green" />
    </g>

    <g>
      <rect class="arm-l" x="250" y="150" width="25" height="50" fill="orange" />
      <rect class="arm-r" x="325" y="150" width="25" height="50" fill="orange" />

      <rect class="arm-r" x="325" y="75" width="25" height="75" fill="magenta" transform="rotate(-25, 350, 75)" />
      <rect class="body" x="250" y="75" width="100" height="100" fill="blue" />
      <rect class="arm-l" x="250" y="75" width="25" height="75" fill="magenta" transform="rotate(25, 250, 75)" />

      <circle class="head" cx="300" cy="50" r="50" fill="green" />
    </g>

  </svg>